<mxfile host="app.diagrams.net" modified="2021-05-25T20:58:59.696Z" agent="5.0 (Windows NT 10.0; Win64; x64) AppleWebKit/537.36 (KHTML, like Gecko) Chrome/90.0.4430.212 Safari/537.36 Edg/90.0.818.66" etag="RaownVKfwyOpbsYXyYvp" version="14.6.13" type="github">
  <diagram id="wI5i0-9L8oOKrW5WsaNg" name="Page-1">
    <mxGraphModel dx="1038" dy="580" grid="1" gridSize="10" guides="1" tooltips="1" connect="1" arrows="1" fold="1" page="1" pageScale="1" pageWidth="827" pageHeight="1169" math="0" shadow="0">
      <root>
        <mxCell id="0" />
        <mxCell id="1" parent="0" />
        <mxCell id="dOYxH31xg313woGToDFT-1" value="Start" style="ellipse;whiteSpace=wrap;html=1;fontSize=21;" vertex="1" parent="1">
          <mxGeometry x="150" y="50" width="120" height="50" as="geometry" />
        </mxCell>
        <mxCell id="dOYxH31xg313woGToDFT-2" value="" style="endArrow=classic;html=1;fontSize=21;" edge="1" parent="1">
          <mxGeometry width="50" height="50" relative="1" as="geometry">
            <mxPoint x="210" y="100" as="sourcePoint" />
            <mxPoint x="210" y="150" as="targetPoint" />
          </mxGeometry>
        </mxCell>
        <mxCell id="dOYxH31xg313woGToDFT-5" value="Ввод n" style="rounded=1;whiteSpace=wrap;html=1;fontSize=21;arcSize=50;" vertex="1" parent="1">
          <mxGeometry x="150" y="150" width="120" height="60" as="geometry" />
        </mxCell>
        <mxCell id="dOYxH31xg313woGToDFT-6" value="" style="endArrow=classic;html=1;fontSize=21;" edge="1" parent="1">
          <mxGeometry width="50" height="50" relative="1" as="geometry">
            <mxPoint x="209.5" y="210" as="sourcePoint" />
            <mxPoint x="209.5" y="260" as="targetPoint" />
          </mxGeometry>
        </mxCell>
        <mxCell id="dOYxH31xg313woGToDFT-7" value="f=n.split(&#39; &#39;)" style="rounded=1;whiteSpace=wrap;html=1;fontSize=21;arcSize=50;" vertex="1" parent="1">
          <mxGeometry x="150" y="260" width="120" height="60" as="geometry" />
        </mxCell>
        <mxCell id="dOYxH31xg313woGToDFT-8" value="" style="endArrow=classic;html=1;fontSize=21;" edge="1" parent="1">
          <mxGeometry width="50" height="50" relative="1" as="geometry">
            <mxPoint x="209.5" y="320" as="sourcePoint" />
            <mxPoint x="209.5" y="370" as="targetPoint" />
          </mxGeometry>
        </mxCell>
        <mxCell id="dOYxH31xg313woGToDFT-9" value="print(f[0])" style="rounded=1;whiteSpace=wrap;html=1;fontSize=21;arcSize=50;" vertex="1" parent="1">
          <mxGeometry x="150" y="370" width="120" height="60" as="geometry" />
        </mxCell>
      </root>
    </mxGraphModel>
  </diagram>
</mxfile>
